<svg xmlns="http://www.w3.org/2000/svg">
	<symbol id="ico-home" viewBox="0 0 24 24">
		<path d="M10 20v-6h4v6h5v-8h3L12 3 2 12h3v8z"/>
	</symbol>
	<symbol id="ico-json" viewBox="0 0 24 24">
		<path d="M7.77 6.76L6.23 5.48.82 12l5.41 6.52 1.54-1.28L3.42 12l4.35-5.24zM7 13h2v-2H7v2zm10-2h-2v2h2v-2zm-6 2h2v-2h-2v2zm6.77-7.52l-1.54 1.28L20.58 12l-4.35 5.24 1.54 1.28L23.18 12l-5.41-6.52z"/>
	</symbol>
	<symbol id="ico-admin-users" viewBox="0 0 24 24">
		<path d="M15 12c2.21 0 4-1.79 4-4s-1.79-4-4-4-4 1.79-4 4 1.79 4 4 4zm-9-2V7H4v3H1v2h3v3h2v-3h3v-2H6zm9 4c-2.67 0-8 1.34-8 4v2h16v-2c0-2.66-5.33-4-8-4z"/>
	</symbol>
	<symbol id="ico-configuration" viewBox="0 0 24 24">
		<path d="M12 10c-1.1 0-2 .9-2 2s.9 2 2 2 2-.9 2-2-.9-2-2-2zm7-7H5c-1.11 0-2 .9-2 2v14c0 1.1.89 2 2 2h14c1.11 0 2-.9 2-2V5c0-1.1-.89-2-2-2zm-1.75 9c0 .23-.02.46-.05.68l1.48 1.16c.13.11.17.3.08.45l-1.4 2.42c-.09.15-.27.21-.43.15l-1.74-.7c-.36.28-.76.51-1.18.69l-.26 1.85c-.03.17-.18.3-.35.3h-2.8c-.17 0-.32-.13-.35-.29l-.26-1.85c-.43-.18-.82-.41-1.18-.69l-1.74.7c-.16.06-.34 0-.43-.15l-1.4-2.42c-.09-.15-.05-.34.08-.45l1.48-1.16c-.03-.23-.05-.46-.05-.69 0-.23.02-.46.05-.68l-1.48-1.16c-.13-.11-.17-.3-.08-.45l1.4-2.42c.09-.15.27-.21.43-.15l1.74.7c.36-.28.76-.51 1.18-.69l.26-1.85c.03-.17.18-.3.35-.3h2.8c.17 0 .32.13.35.29l.26 1.85c.43.18.82.41 1.18.69l1.74-.7c.16-.06.34 0 .43.15l1.4 2.42c.09.15.05.34-.08.45l-1.48 1.16c.03.23.05.46.05.69z"/>
	</symbol>
	<symbol id="ico-sessions" viewBox="0 0 24 24">
		<path d="M13.49 5.48c1.1 0 2-.9 2-2s-.9-2-2-2-2 .9-2 2 .9 2 2 2zm-3.6 13.9l1-4.4 2.1 2v6h2v-7.5l-2.1-2 .6-3c1.3 1.5 3.3 2.5 5.5 2.5v-2c-1.9 0-3.5-1-4.3-2.4l-1-1.6c-.4-.6-1-1-1.7-1-.3 0-.5.1-.8.1l-5.2 2.2v4.7h2v-3.4l1.8-.7-1.6 8.1-4.9-1-.4 2 7 1.4z"/>
	</symbol>
	<symbol id="ico-otp" viewBox="0 0 24 24">
		<path d="M18 8h-1V6c0-2.76-2.24-5-5-5S7 3.24 7 6v2H6c-1.1 0-2 .9-2 2v10c0 1.1.9 2 2 2h12c1.1 0 2-.9 2-2V10c0-1.1-.9-2-2-2zm-6 9c-1.1 0-2-.9-2-2s.9-2 2-2 2 .9 2 2-.9 2-2 2zm3.1-9H8.9V6c0-1.71 1.39-3.1 3.1-3.1 1.71 0 3.1 1.39 3.1 3.1v2z"/>
	</symbol>
	<symbol id="ico-app-content" viewBox="0 0 24 24">
		<path d="M4 8h4V4H4v4zm6 12h4v-4h-4v4zm-6 0h4v-4H4v4zm0-6h4v-4H4v4zm6 0h4v-4h-4v4zm6-10v4h4V4h-4zm-6 4h4V4h-4v4zm6 6h4v-4h-4v4zm0 6h4v-4h-4v4z"/>
	</symbol>
	<symbol id="ico-platform" viewBox="0 0 24 24">
		<path d="M11.99 18.54l-7.37-5.73L3 14.07l9 7 9-7-1.63-1.27-7.38 5.74zM12 16l7.36-5.73L21 9l-9-7-9 7 1.63 1.27L12 16z"/>
	</symbol>
	<symbol id="ico-users" viewBox="0 0 24 24">
		<path d="M12 2C6.48 2 2 6.48 2 12s4.48 10 10 10 10-4.48 10-10S17.52 2 12 2zm0 3c1.66 0 3 1.34 3 3s-1.34 3-3 3-3-1.34-3-3 1.34-3 3-3zm0 14.2c-2.5 0-4.71-1.28-6-3.22.03-1.99 4-3.08 6-3.08 1.99 0 5.97 1.09 6 3.08-1.29 1.94-3.5 3.22-6 3.22z"/>
	</symbol>
	<symbol id="ico-plugins" viewBox="0 0 24 24">
		<path d="M20.5 11H19V7c0-1.1-.9-2-2-2h-4V3.5C13 2.12 11.88 1 10.5 1S8 2.12 8 3.5V5H4c-1.1 0-1.99.9-1.99 2v3.8H3.5c1.49 0 2.7 1.21 2.7 2.7s-1.21 2.7-2.7 2.7H2V20c0 1.1.9 2 2 2h3.8v-1.5c0-1.49 1.21-2.7 2.7-2.7 1.49 0 2.7 1.21 2.7 2.7V22H17c1.1 0 2-.9 2-2v-4h1.5c1.38 0 2.5-1.12 2.5-2.5S21.88 11 20.5 11z"/>
	</symbol>
	<symbol id="ico-services" viewBox="0 0 24 24">
		<path d="M11.99 2C6.47 2 2 6.48 2 12s4.47 10 9.99 10C17.52 22 22 17.52 22 12S17.52 2 11.99 2zm6.93 6h-2.95c-.32-1.25-.78-2.45-1.38-3.56 1.84.63 3.37 1.91 4.33 3.56zM12 4.04c.83 1.2 1.48 2.53 1.91 3.96h-3.82c.43-1.43 1.08-2.76 1.91-3.96zM4.26 14C4.1 13.36 4 12.69 4 12s.1-1.36.26-2h3.38c-.08.66-.14 1.32-.14 2 0 .68.06 1.34.14 2H4.26zm.82 2h2.95c.32 1.25.78 2.45 1.38 3.56-1.84-.63-3.37-1.9-4.33-3.56zm2.95-8H5.08c.96-1.66 2.49-2.93 4.33-3.56C8.81 5.55 8.35 6.75 8.03 8zM12 19.96c-.83-1.2-1.48-2.53-1.91-3.96h3.82c-.43 1.43-1.08 2.76-1.91 3.96zM14.34 14H9.66c-.09-.66-.16-1.32-.16-2 0-.68.07-1.35.16-2h4.68c.09.65.16 1.32.16 2 0 .68-.07 1.34-.16 2zm.25 5.56c.6-1.11 1.06-2.31 1.38-3.56h2.95c-.96 1.65-2.49 2.93-4.33 3.56zM16.36 14c.08-.66.14-1.32.14-2 0-.68-.06-1.34-.14-2h3.38c.16.64.26 1.31.26 2s-.1 1.36-.26 2h-3.38z"/>
	</symbol>
	<symbol id="ico-thresholds" viewBox="0 0 24 24">
		<path d="M23 12l-2.44-2.78.34-3.68-3.61-.82-1.89-3.18L12 3 8.6 1.54 6.71 4.72l-3.61.81.34 3.68L1 12l2.44 2.78-.34 3.69 3.61.82 1.89 3.18L12 21l3.4 1.46 1.89-3.18 3.61-.82-.34-3.68L23 12zm-10 5h-2v-2h2v2zm0-4h-2V7h2v6z"/>
	</symbol>
	<symbol id="ico-transactions" viewBox="0 0 24 24">
		<path d="M12 2C6.48 2 2 6.48 2 12s4.48 10 10 10 10-4.48 10-10S17.52 2 12 2zM6.5 9L10 5.5 13.5 9H11v4H9V9H6.5zm11 6L14 18.5 10.5 15H13v-4h2v4h2.5z"/>
	</symbol>
	<symbol id="ico-log" viewBox="0 0 24 24">
		<path d="M19 3h-4.18C14.4 1.84 13.3 1 12 1c-1.3 0-2.4.84-2.82 2H5c-1.1 0-2 .9-2 2v14c0 1.1.9 2 2 2h14c1.1 0 2-.9 2-2V5c0-1.1-.9-2-2-2zm-7 0c.55 0 1 .45 1 1s-.45 1-1 1-1-.45-1-1 .45-1 1-1zm2 14H7v-2h7v2zm3-4H7v-2h10v2zm0-4H7V7h10v2z"/>
	</symbol>
	<symbol id="ico-system" viewBox="0 0 24 24">
		<path d="M12 1L3 5v6c0 5.55 3.84 10.74 9 12 5.16-1.26 9-6.45 9-12V5l-9-4zm-2 16l-4-4 1.41-1.41L10 14.17l6.59-6.59L18 9l-8 8z"/>
	</symbol>
	<symbol id="ico-ok" viewBox="0 0 24 24">
		<path d="M12 2C6.48 2 2 6.48 2 12s4.48 10 10 10 10-4.48 10-10S17.52 2 12 2zm-2 15l-5-5 1.41-1.41L10 14.17l7.59-7.59L19 8l-9 9z"/>
	</symbol>
	<symbol id="ico-ko" viewBox="0 0 24 24">
		<path d="M12 2C6.47 2 2 6.47 2 12s4.47 10 10 10 10-4.47 10-10S17.53 2 12 2zm5 13.59L15.59 17 12 13.41 8.41 17 7 15.59 10.59 12 7 8.41 8.41 7 12 10.59 15.59 7 17 8.41 13.41 12 17 15.59z"/>
	</symbol>
	<symbol id="ico-warning" viewBox="0 0 24 24">
		<path d="M1 21h22L12 2 1 21zm12-3h-2v-2h2v2zm0-4h-2v-4h2v4z"/>
	</symbol>
	<symbol id="ico-add" viewBox="0 0 24 24">
		<path d="M19 13h-6v6h-2v-6H5v-2h6V5h2v6h6v2z"/>
	</symbol>
	<symbol id="ico-refresh" viewBox="0 0 24 24">
		<path d="M17.65 6.35C16.2 4.9 14.21 4 12 4c-4.42 0-7.99 3.58-7.99 8s3.57 8 7.99 8c3.73 0 6.84-2.55 7.73-6h-2.08c-.82 2.33-3.04 4-5.65 4-3.31 0-6-2.69-6-6s2.69-6 6-6c1.66 0 3.14.69 4.22 1.78L13 11h7V4l-2.35 2.35z"/>
	</symbol>
	<symbol id="ico-import" viewBox="0 0 24 24">
		<path d="M20 12l-1.41-1.41L13 16.17V4h-2v12.17l-5.58-5.59L4 12l8 8 8-8z"/>
	</symbol>
	<symbol id="ico-export" viewBox="0 0 24 24">
		<path d="M4 12l1.41 1.41L11 7.83V20h2V7.83l5.58 5.59L20 12l-8-8-8 8z"/>
	</symbol>
	<symbol id="ico-no" viewBox="0 0 24 24">
		<path d="M19 6.41L17.59 5 12 10.59 6.41 5 5 6.41 10.59 12 5 17.59 6.41 19 12 13.41 17.59 19 19 17.59 13.41 12z"/>
	</symbol>
	<symbol id="ico-yes" viewBox="0 0 24 24">
		<path d="M9 16.2L4.8 12l-1.4 1.4L9 19 21 7l-1.4-1.4L9 16.2z"/>
	</symbol>
	<symbol id="ico-search" viewBox="0 0 24 24">
		<path d="M15.5 14h-.79l-.28-.27C15.41 12.59 16 11.11 16 9.5 16 5.91 13.09 3 9.5 3S3 5.91 3 9.5 5.91 16 9.5 16c1.61 0 3.09-.59 4.23-1.57l.27.28v.79l5 4.99L20.49 19l-4.99-5zm-6 0C7.01 14 5 11.99 5 9.5S7.01 5 9.5 5 14 7.01 14 9.5 11.99 14 9.5 14z"/>
	</symbol>
	<symbol id="ico-key" viewBox="0 0 24 24">
		<path d="M12.65 10C11.83 7.67 9.61 6 7 6c-3.31 0-6 2.69-6 6s2.69 6 6 6c2.61 0 4.83-1.67 5.65-4H17v4h4v-4h2v-4H12.65zM7 14c-1.1 0-2-.9-2-2s.9-2 2-2 2 .9 2 2-.9 2-2 2z"/>
	</symbol>
	<symbol id="ico-chart" viewBox="0 0 24 24">
		<path d="M10 20h4V4h-4v16zm-6 0h4v-8H4v8zM16 9v11h4V9h-4z"/>
	</symbol>
	<symbol id="ico-view" viewBox="0 0 24 24">
		<path d="M12 4.5C7 4.5 2.73 7.61 1 12c1.73 4.39 6 7.5 11 7.5s9.27-3.11 11-7.5c-1.73-4.39-6-7.5-11-7.5zM12 17c-2.76 0-5-2.24-5-5s2.24-5 5-5 5 2.24 5 5-2.24 5-5 5zm0-8c-1.66 0-3 1.34-3 3s1.34 3 3 3 3-1.34 3-3-1.34-3-3-3z"/>
	</symbol>
	<symbol id="ico-count" viewBox="0 0 24 24">
		<path d="M3 5H1v16c0 1.1.9 2 2 2h16v-2H3V5zm18-4H7c-1.1 0-2 .9-2 2v14c0 1.1.9 2 2 2h14c1.1 0 2-.9 2-2V3c0-1.1-.9-2-2-2zm0 16H7V3h14v14zM15 5h-2c-1.1 0-2 .89-2 2v2c0 1.11.9 2 2 2h2v2h-4v2h4c1.1 0 2-.89 2-2V7c0-1.11-.9-2-2-2zm0 4h-2V7h2v2z"/>
	</symbol>
	<symbol id="ico-smartphone" viewBox="0 0 35 35">
		<path d="M25.302,0H9.698c-1.3,0-2.364,1.063-2.364,2.364v30.271C7.334,33.936,8.398,35,9.698,35h15.604
		c1.3,0,2.364-1.062,2.364-2.364V2.364C27.666,1.063,26.602,0,25.302,0z M15.004,1.704h4.992c0.158,0,0.286,0.128,0.286,0.287
		c0,0.158-0.128,0.286-0.286,0.286h-4.992c-0.158,0-0.286-0.128-0.286-0.286C14.718,1.832,14.846,1.704,15.004,1.704z M17.5,33.818
		c-0.653,0-1.182-0.529-1.182-1.183s0.529-1.182,1.182-1.182s1.182,0.528,1.182,1.182S18.153,33.818,17.5,33.818z M26.021,30.625
		H8.979V3.749h17.042V30.625z"/>
	</symbol>
	<symbol id="ico-html" viewBox="0 0 502.664 502.664">
		<path d="M153.821,358.226L0,274.337v-46.463l153.821-83.414v54.574L46.636,250.523l107.185,53.431
			C153.821,303.954,153.821,358.226,153.821,358.226z"/>
		<path d="M180.094,387.584L282.103,115.08h32.227L212.084,387.584H180.094z"/>
		<path d="M348.843,358.226v-54.272l107.164-52.999l-107.164-52.59v-53.927l153.821,83.522v46.183
			L348.843,358.226z"/>
	</symbol>
	<symbol id="ico-toolbox" viewBox="0 0 420.555 420.555">
		<path d="M419.658,319.097c-3.531-11.585-9.88-22.113-18.48-30.64c-13.697-13.773-32.336-21.493-51.76-21.44
			c-9.927,0.005-19.751,2.019-28.88,5.92l-72-72l95.6-94.88l22.64-0.64c2.739-0.083,5.244-1.563,6.64-3.92l32.4-54.48
			c1.883-3.144,1.388-7.166-1.2-9.76l-28-28c-2.594-2.588-6.616-3.083-9.76-1.2l-54.48,32.4c-2.357,1.396-3.837,3.901-3.92,6.64
			l-0.64,22.56l-95.36,95.2l-65.44-65.44c6.871-39.839-19.855-77.705-59.694-84.576c-18.459-3.184-37.437,0.83-53.026,11.216
			c-3.66,2.475-4.621,7.448-2.146,11.108c0.696,1.029,1.622,1.882,2.706,2.492l36.32,20.24c8,4.56,9.6,18.16,3.12,29.68
			c-6.48,11.52-18.88,17.44-26.96,12.96l-33.68-18.24c-3.871-2.13-8.736-0.718-10.865,3.153c-0.734,1.333-1.072,2.848-0.974,4.367
			c2.531,40.348,37.292,71.004,77.64,68.473c8.336-0.523,16.521-2.469,24.2-5.753l59.52,59.52l-25.76,25.76l-5.84-5.76
			c-6.465-6.187-16.655-6.187-23.12,0l-8,8c-6.095,5.934-6.481,15.599-0.88,22l-94.64,94.48c-6.384,6.109-6.607,16.238-0.498,22.622
			c0.162,0.17,0.328,0.336,0.498,0.498l27.04,27.04c6.109,6.384,16.238,6.607,22.622,0.498c0.17-0.162,0.336-0.328,0.498-0.498
			l94.72-94.64c6.401,5.601,16.066,5.215,22-0.88l8-8c6.384-6.109,6.607-16.238,0.498-22.622c-0.162-0.17-0.328-0.336-0.498-0.498
			l-5.84-5.84l25.6-26.16l77.6,77.6c-6.704,39.868,20.18,77.621,60.048,84.325c23.614,3.971,47.677-3.859,64.432-20.965
			c2.938-3.3,2.646-8.356-0.654-11.295c-0.852-0.759-1.857-1.327-2.946-1.665l-45.04-12.08c-4.414-1.419-7.908-4.824-9.44-9.2
			c-2.34-6.033-2.621-12.67-0.8-18.88c3.36-12.56,14-21.52,22.96-19.12l44.56,12c0.716,0.104,1.444,0.104,2.16,0
			c4.418,0.054,8.043-3.484,8.096-7.902C420.57,321.561,420.263,320.263,419.658,319.097z M321.178,78.537
			c1.44-1.45,2.27-3.397,2.32-5.44l0.64-21.36l45.36-26.96l19.2,19.2l-26.4,45.28l-21.76,0.8c-2.043,0.05-3.99,0.88-5.44,2.32
			l-97.6,97.52l-13.76-13.76L321.178,78.537z M43.738,397.337l-27.44-27.28l95.12-94.88l13.76,13.76l13.12,13.6L43.738,397.337z
			 M160.778,301.337l-10.56-10.64l-4.08-4.08l-33.6-33.84l8-8l48,48.64L160.778,301.337z M162.298,264.857l-13.76-13.76l25.76-25.76
			l13.76,13.76L162.298,264.857z M369.658,303.337c-2.374-0.638-4.822-0.961-7.28-0.96c-17.441,1.408-31.837,14.204-35.28,31.36
			c-2.73,9.634-2.196,19.901,1.52,29.2c3.429,8.949,10.866,15.764,20.08,18.4l29.76,8c-27.138,16.171-62.247,7.281-78.418-19.856
			c-7.595-12.745-9.94-27.942-6.542-42.384c0.609-2.686-0.207-5.497-2.16-7.44l-180.32-180.48c-2.56-2.405-6.389-2.859-9.44-1.12
			c-8.261,4.359-17.46,6.639-26.8,6.64c-24.069,0.021-45.568-15.048-53.76-37.68l18.24,10.16c4.252,2.381,9.047,3.621,13.92,3.6
			c14.812-0.853,28.06-9.502,34.8-22.72c10.88-19.44,6.64-42.56-9.36-51.52l-23.28-13.2c29.75-10.627,62.481,4.876,73.108,34.625
			c3.688,10.326,4.331,21.494,1.852,32.175c-0.609,2.686,0.207,5.497,2.16,7.44l180.72,180.64c2.47,2.473,6.26,3.057,9.36,1.44
			c8.262-4.356,17.46-6.635,26.8-6.64c20.258-0.016,39.009,10.699,49.28,28.16L369.658,303.337z"/>
	</symbol>
	<symbol id="ico-toolbox-big" viewBox="0 0 124.116 124.116">
		<path d="M103.341,3.524l-34,34l17.101,17.1l34.1-34c4.7-4.7,4.7-12.4,0-17.1C115.741-1.175,108.142-1.175,103.341,3.524z"/>
		<path d="M80.241,60.924l-17.2-17.1l-2.8-2.8c-1.3-1.3-1.8-3.1-1.3-4.8c0.8-3,1.1-6.2,0.8-9.5c-0.3-3.7-1.3-7.3-3-10.6
		c-1.6-3.2-3.9-6.1-6.6-8.5c-2.7-2.4-5.9-4.3-9.301-5.5c-4.5-1.6-9.3-2-14-1.3c-2.399,0.4-3.399,3.4-1.6,5.1l11.7,11.7
		c4.7,4.7,5,12.7,0.3,17.4c-2.4,2.4-5.5,3.5-8.6,3.5c-3.101,0-6.2-1.2-8.601-3.6l-12-11.8c-0.6-0.6-1.4-0.9-2.1-0.9
		c-1.4,0-2.8,1-3,2.6c-0.2,1.3-0.3,2.6-0.3,3.9c-0.3,14.2,11.6,27.6,25.899,28.9c0.9,0.1,1.8,0.1,2.7,0.1c2.5,0,4.8-0.3,7.1-0.9
		c1.801-0.4,3.601,0.1,4.9,1.4l2.7,2.7l4.8,4.8l7.1,7.101l5.2,5.199l38.8,38.801c2.4,2.399,5.5,3.6,8.601,3.6c3.1,0,6.2-1.2,8.6-3.6
		c4.7-4.7,4.7-12.4,0-17.101L80.241,60.924z"/>
		<path d="M30.541,105.925l-0.2-2.5c-0.1-1.3,0.4-2.5,1.301-3.4l11.699-11.699c0.301-0.301,0.801-0.301,1.101,0
		c2.399,2.399,6.2,2.399,8.6,0l3.9-3.9l-4.8-4.8l-3.801-3.8l-3.8-3.801l-4.8-4.8l-3.9,3.9c-2.399,2.399-2.399,6.2,0,8.6
		c0.301,0.3,0.301,0.8,0,1.101l-11.8,11.699c-0.899,0.9-2.1,1.4-3.399,1.301l-2.5-0.2c-1-0.101-1.9,0.3-2.601,1.1l-14.799,18.2
		c-1,1.2-0.9,3,0.2,4.1l3.1,3.101l3.1,3.1c1.1,1.101,2.8,1.2,4.1,0.2l18.2-14.8C30.142,107.825,30.541,106.925,30.541,105.925z"/>
	</symbol>
	<symbol id="ico-json-file" viewBox="0 0 58 58">
		<path d="M50.949,12.187l-1.361-1.361l-9.504-9.505c-0.001-0.001-0.001-0.001-0.002-0.001l-0.77-0.771
		C38.957,0.195,38.486,0,37.985,0H8.963C7.776,0,6.5,0.916,6.5,2.926V39v16.537V56c0,0.837,0.841,1.652,1.836,1.909
		c0.051,0.014,0.1,0.033,0.152,0.043C8.644,57.983,8.803,58,8.963,58h40.074c0.16,0,0.319-0.017,0.475-0.048
		c0.052-0.01,0.101-0.029,0.152-0.043C50.659,57.652,51.5,56.837,51.5,56v-0.463V39V13.978C51.5,13.211,51.407,12.644,50.949,12.187
		z M39.5,3.565L47.935,12H39.5V3.565z M8.963,56c-0.071,0-0.135-0.025-0.198-0.049C8.61,55.877,8.5,55.721,8.5,55.537V41h41v14.537
		c0,0.184-0.11,0.34-0.265,0.414C49.172,55.975,49.108,56,49.037,56H8.963z M8.5,39V2.926C8.5,2.709,8.533,2,8.963,2h28.595
		C37.525,2.126,37.5,2.256,37.5,2.391V13.78c-0.532-0.48-1.229-0.78-2-0.78c-0.553,0-1,0.448-1,1s0.447,1,1,1c0.552,0,1,0.449,1,1v4
		c0,1.2,0.542,2.266,1.382,3c-0.84,0.734-1.382,1.8-1.382,3v4c0,0.551-0.448,1-1,1c-0.553,0-1,0.448-1,1s0.447,1,1,1
		c1.654,0,3-1.346,3-3v-4c0-1.103,0.897-2,2-2c0.553,0,1-0.448,1-1s-0.447-1-1-1c-1.103,0-2-0.897-2-2v-4
		c0-0.771-0.301-1.468-0.78-2h11.389c0.135,0,0.265-0.025,0.391-0.058c0,0.015,0.001,0.021,0.001,0.036V39H8.5z"/>
		<path d="M16.354,51.43c-0.019,0.446-0.171,0.764-0.458,0.95s-0.672,0.28-1.155,0.28c-0.191,0-0.396-0.022-0.615-0.068
		s-0.429-0.098-0.629-0.157s-0.385-0.123-0.554-0.191s-0.299-0.135-0.39-0.198l-0.697,1.107c0.183,0.137,0.405,0.26,0.67,0.369
		s0.54,0.207,0.827,0.294s0.565,0.15,0.834,0.191s0.504,0.062,0.704,0.062c0.401,0,0.791-0.039,1.169-0.116
		c0.378-0.077,0.713-0.214,1.005-0.41s0.524-0.456,0.697-0.779s0.26-0.723,0.26-1.196v-7.848h-1.668V51.43z"/>
		<path d="M25.083,49.064c-0.314-0.228-0.654-0.422-1.019-0.581s-0.702-0.323-1.012-0.492s-0.569-0.364-0.779-0.588
		s-0.314-0.518-0.314-0.882c0-0.146,0.036-0.299,0.109-0.458s0.173-0.303,0.301-0.431s0.273-0.234,0.438-0.321
		s0.337-0.139,0.52-0.157c0.328-0.027,0.597-0.032,0.807-0.014s0.378,0.05,0.506,0.096s0.226,0.091,0.294,0.137
		s0.13,0.082,0.185,0.109c0.009-0.009,0.036-0.055,0.082-0.137s0.101-0.185,0.164-0.308s0.132-0.255,0.205-0.396
		s0.137-0.271,0.191-0.39c-0.265-0.173-0.61-0.299-1.039-0.376s-0.853-0.116-1.271-0.116c-0.41,0-0.8,0.063-1.169,0.191
		s-0.692,0.313-0.971,0.554s-0.499,0.535-0.663,0.882S20.4,46.13,20.4,46.576c0,0.492,0.104,0.902,0.314,1.23
		s0.474,0.613,0.793,0.854s0.661,0.451,1.025,0.629s0.704,0.355,1.019,0.533s0.576,0.376,0.786,0.595s0.314,0.483,0.314,0.793
		c0,0.511-0.148,0.896-0.444,1.155s-0.723,0.39-1.278,0.39c-0.183,0-0.378-0.019-0.588-0.055s-0.419-0.084-0.629-0.144
		s-0.412-0.123-0.608-0.191s-0.357-0.139-0.485-0.212l-0.287,1.176c0.155,0.137,0.34,0.253,0.554,0.349s0.439,0.171,0.677,0.226
		c0.237,0.055,0.472,0.094,0.704,0.116s0.458,0.034,0.677,0.034c0.511,0,0.966-0.077,1.367-0.232s0.738-0.362,1.012-0.622
		s0.485-0.561,0.636-0.902s0.226-0.695,0.226-1.06c0-0.538-0.104-0.978-0.314-1.319S25.397,49.292,25.083,49.064z"/>
		<path d="M34.872,45.072c-0.378-0.429-0.82-0.754-1.326-0.978s-1.06-0.335-1.661-0.335s-1.155,0.111-1.661,0.335
		s-0.948,0.549-1.326,0.978s-0.675,0.964-0.889,1.606s-0.321,1.388-0.321,2.235s0.107,1.595,0.321,2.242s0.511,1.185,0.889,1.613
		s0.82,0.752,1.326,0.971s1.06,0.328,1.661,0.328s1.155-0.109,1.661-0.328s0.948-0.542,1.326-0.971s0.675-0.966,0.889-1.613
		s0.321-1.395,0.321-2.242s-0.107-1.593-0.321-2.235S35.25,45.501,34.872,45.072z M34.195,50.698
		c-0.137,0.487-0.326,0.882-0.567,1.183s-0.515,0.518-0.82,0.649s-0.627,0.198-0.964,0.198c-0.328,0-0.641-0.07-0.937-0.212
		s-0.561-0.364-0.793-0.67s-0.415-0.699-0.547-1.183s-0.203-1.066-0.212-1.75c0.009-0.702,0.082-1.294,0.219-1.777
		c0.137-0.483,0.326-0.877,0.567-1.183s0.515-0.521,0.82-0.649s0.627-0.191,0.964-0.191c0.328,0,0.641,0.068,0.937,0.205
		s0.561,0.36,0.793,0.67s0.415,0.704,0.547,1.183s0.203,1.06,0.212,1.743C34.405,49.616,34.332,50.211,34.195,50.698z"/>
		<polygon points="44.012,50.869 40.061,43.924 38.393,43.924 38.393,54 40.061,54 40.061,47.055 44.012,54 45.68,54 45.68,43.924 
		44.012,43.924 	"/>
		<path d="M20.5,20v-4c0-0.551,0.448-1,1-1c0.553,0,1-0.448,1-1s-0.447-1-1-1c-1.654,0-3,1.346-3,3v4c0,1.103-0.897,2-2,2
		c-0.553,0-1,0.448-1,1s0.447,1,1,1c1.103,0,2,0.897,2,2v4c0,1.654,1.346,3,3,3c0.553,0,1-0.448,1-1s-0.447-1-1-1
		c-0.552,0-1-0.449-1-1v-4c0-1.2-0.542-2.266-1.382-3C19.958,22.266,20.5,21.2,20.5,20z"/>
		<circle cx="28.5" cy="19.5" r="1.5"/>
		<path d="M28.5,25c-0.553,0-1,0.448-1,1v3c0,0.552,0.447,1,1,1s1-0.448,1-1v-3C29.5,25.448,29.053,25,28.5,25z"/>
	</symbol>
	<symbol id="ico-house-key" viewBox="0 0 248.878 248.878">
		<path d="m238.051,108.371c-0.14-0.072-0.281-0.139-0.425-0.2l-29.523-12.729c-1.698-0.733-3.617-0.762-5.337-0.085l-17.716,6.979-17.718-6.979c-1.649-0.649-3.481-0.649-5.131,0l-17.718,6.979-17.716-6.979c-1.648-0.649-3.482-0.649-5.13,0l-12.867,5.067c-9.231-20.014-29.19-33.008-51.747-33.008-31.442,0-57.023,25.58-57.023,57.023s25.581,57.023 57.023,57.023c23.506,0 44.111-14.04 52.797-35.442h119.134c10.986,0 19.924-8.938 19.924-19.924-2.84217e-14-7.505-4.149-14.298-10.827-17.725zm-9.096,23.65h-124.074c-3.081,0-5.8,2.015-6.697,4.962-5.548,18.231-22.089,30.48-41.161,30.48-23.723,2.84217e-14-43.023-19.301-43.023-43.024s19.3-43.023 43.023-43.023c18.934,0 35.441,12.131 41.077,30.187 0.58,1.856 1.905,3.388 3.659,4.228 1.755,0.841 3.78,0.913 5.588,0.2l16.854-6.638 17.716,6.979c1.648,0.649 3.482,0.649 5.131,0l17.718-6.979 17.718,6.979c1.649,0.649 3.482,0.648 5.131,0l17.596-6.931 26.616,11.476c1.887,1.045 3.052,3.013 3.052,5.181-0.001,3.266-2.658,5.923-5.924,5.923z"/>
		<path d="m45.787,106.202c-10.056,0-18.237,8.181-18.237,18.237s8.181,18.237 18.237,18.237 18.237-8.181 18.237-18.237-8.182-18.237-18.237-18.237zm0,22.474c-2.336,0-4.237-1.901-4.237-4.237s1.901-4.237 4.237-4.237 4.237,1.901 4.237,4.237-1.901,4.237-4.237,4.237z"/>
	</symbol>
	<symbol id="ico-otp-password" viewBox="0 0 512 512">
		<circle cx="370" cy="346" r="20"/>
			<path d="M460,362c11.046,0,20-8.954,20-20v-74c0-44.112-35.888-80-80-80h-24.037v-70.534C375.963,52.695,322.131,0,255.963,0
				s-120,52.695-120,117.466V188H112c-44.112,0-80,35.888-80,80v164c0,44.112,35.888,80,80,80h288c44.112,0,80-35.888,80-80
				c0-11.046-8.954-20-20-20c-11.046,0-20,8.954-20,20c0,22.056-17.944,40-40,40H112c-22.056,0-40-17.944-40-40V268
				c0-22.056,17.944-40,40-40h288c22.056,0,40,17.944,40,40v74C440,353.046,448.954,362,460,362z M335.963,188h-160v-70.534
				c0-42.715,35.888-77.466,80-77.466s80,34.751,80,77.466V188z"/>
			<circle cx="219" cy="346" r="20"/>
			<circle cx="144" cy="346" r="20"/>
			<circle cx="294" cy="346" r="20"/>
	</symbol>
</svg>